<svg width="235" height="107" viewBox="0 0 235 107" fill="none" xmlns="http://www.w3.org/2000/svg">
<g filter="url(#filter0_d)">
<path d="M29 16C24.0294 16 20 20.0294 20 25V69C20 73.9706 24.0294 78 29 78H113.201L118 82.799L122.799 78H206C210.971 78 215 73.9706 215 69V25C215 20.0294 210.971 16 206 16H29Z" fill="#050505"/>
</g>
<path fill-rule="evenodd" clip-rule="evenodd" d="M65.6026 28.4935H37.9738C35.4994 28.4935 33.4934 30.4994 33.4934 32.9738V60.6026C33.4934 63.0771 35.4994 65.083 37.9738 65.083H65.6026C68.077 65.083 70.083 63.0771 70.083 60.6026V32.9738C70.083 30.4994 68.077 28.4935 65.6026 28.4935ZM37.9738 27C34.6746 27 32 29.6746 32 32.9738V60.6026C32 63.9019 34.6746 66.5764 37.9738 66.5764H65.6026C68.9019 66.5764 71.5764 63.9019 71.5764 60.6026V32.9738C71.5764 29.6746 68.9019 27 65.6026 27H37.9738Z" fill="#E5E5E5"/>
<path d="M43.1996 47.5893C43.1996 49.136 44.1184 50.0395 45.5528 50.0395C46.9412 50.0395 47.7324 49.3095 47.7631 48.2631H46.6298C46.5584 48.6561 46.3134 49.0288 45.5885 49.0288C44.8534 49.0288 44.4094 48.4826 44.4094 47.5893V46.8849C44.4094 46.0171 44.8228 45.4607 45.5834 45.4607C46.3083 45.4607 46.5584 45.9303 46.6043 46.2774H47.7324C47.712 45.3076 46.9565 44.4449 45.5579 44.4449C44.098 44.4449 43.1996 45.4096 43.1996 46.8644V47.5893Z" fill="#E5E5E5"/>
<path d="M49.4845 44.5878H48.6423V45.5475H49.4641V48.4213C49.4641 49.5188 49.852 49.9833 51.1792 49.9833C51.4498 49.9833 51.8275 49.9476 51.9245 49.9272V48.993C51.8326 49.0033 51.6335 49.0135 51.4753 49.0135C50.8832 49.0135 50.6586 48.8501 50.6586 48.2886V45.5475H51.8683V44.5878H50.6586V43.2402H49.4845V44.5878Z" fill="#E5E5E5"/>
<path d="M53.3601 49.9476H54.5903V46.793C54.5903 46.0681 55.0191 45.5424 55.9226 45.5424C56.1166 45.5424 56.3208 45.5526 56.4228 45.5832V44.4959C56.3156 44.4755 56.188 44.4602 56.0247 44.4602C55.1365 44.4602 54.7434 45.0217 54.626 45.3841H54.5648V44.5419H53.3601V49.9476Z" fill="#E5E5E5"/>
<path d="M57.6543 49.9476H58.8589V42.4796H57.6543V49.9476Z" fill="#E5E5E5"/>
<path d="M84.6428 50.7003V48.263H86.9128V47.3311H84.6428V44.8938H83.6153V47.3311H81.3453V48.263H83.6153V50.7003H84.6428Z" fill="#E5E5E5"/>
<path fill-rule="evenodd" clip-rule="evenodd" d="M131.315 28.4934H103.686C101.211 28.4934 99.2054 30.4994 99.2054 32.9738V60.6026C99.2054 63.077 101.211 65.083 103.686 65.083H131.315C133.789 65.083 135.795 63.077 135.795 60.6026V32.9738C135.795 30.4994 133.789 28.4934 131.315 28.4934ZM103.686 27C100.386 27 97.7119 29.6746 97.7119 32.9738V60.6026C97.7119 63.9019 100.386 66.5764 103.686 66.5764H131.315C134.614 66.5764 137.288 63.9019 137.288 60.6026V32.9738C137.288 29.6746 134.614 27 131.315 27H103.686Z" fill="#E5E5E5"/>
<path d="M150.355 50.7003V48.263H152.625V47.3311H150.355V44.8938H149.327V47.3311H147.057V48.263H149.327V50.7003H150.355Z" fill="#E5E5E5"/>
<path fill-rule="evenodd" clip-rule="evenodd" d="M117.118 40.7784C117.333 40.5775 117.667 40.5775 117.882 40.7784L123.483 46.0054C123.651 46.1624 123.706 46.4062 123.622 46.6202C123.537 46.8342 123.331 46.9749 123.101 46.9749H120.571V51.6419C120.571 51.9512 120.32 52.202 120.011 52.202H114.99C114.68 52.202 114.43 51.9512 114.43 51.6419V46.9749H111.9C111.67 46.9749 111.463 46.8342 111.379 46.6202C111.294 46.4062 111.349 46.1624 111.518 46.0054L117.118 40.7784ZM113.321 45.8548H114.99C115.299 45.8548 115.55 46.1055 115.55 46.4148V51.0819H119.451V46.4148C119.451 46.1055 119.701 45.8548 120.011 45.8548H121.68L117.5 41.9538L113.321 45.8548Z" fill="#E5E5E5"/>
<path fill-rule="evenodd" clip-rule="evenodd" d="M197.026 28.4934H169.397C166.923 28.4934 164.917 30.4994 164.917 32.9738V60.6026C164.917 63.077 166.923 65.083 169.397 65.083H197.026C199.501 65.083 201.507 63.077 201.507 60.6026V32.9738C201.507 30.4994 199.501 28.4934 197.026 28.4934ZM169.397 27C166.098 27 163.424 29.6746 163.424 32.9738V60.6026C163.424 63.9019 166.098 66.5764 169.397 66.5764H197.026C200.325 66.5764 203 63.9019 203 60.6026V32.9738C203 29.6746 200.325 27 197.026 27H169.397Z" fill="#E5E5E5"/>
<path d="M183.668 51V44.1387H186.018V43.002H180V44.1387H182.35V51H183.668Z" fill="#E5E5E5"/>
<defs>
<filter id="filter0_d" x="0" y="0" width="235" height="106.799" filterUnits="userSpaceOnUse" color-interpolation-filters="sRGB">
<feFlood flood-opacity="0" result="BackgroundImageFix"/>
<feColorMatrix in="SourceAlpha" type="matrix" values="0 0 0 0 0 0 0 0 0 0 0 0 0 0 0 0 0 0 127 0"/>
<feOffset dy="4"/>
<feGaussianBlur stdDeviation="10"/>
<feColorMatrix type="matrix" values="0 0 0 0 0 0 0 0 0 0 0 0 0 0 0 0 0 0 0.15 0"/>
<feBlend mode="normal" in2="BackgroundImageFix" result="effect1_dropShadow"/>
<feBlend mode="normal" in="SourceGraphic" in2="effect1_dropShadow" result="shape"/>
</filter>
</defs>
</svg>
