<svg preserveAspectRatio="xMidYMin meet" width="83px" height="83px" viewBox="0 0 83 83" version="1.1" xmlns="http://www.w3.org/2000/svg" xmlns:xlink="http://www.w3.org/1999/xlink"><title>logo-symbol</title> <desc>Created with Sketch.</desc> <defs> <path d="M41.9175191,82.7938593 C64.596518,82.7938593 83.0475883,64.402775 83.0475883,41.7966672 C83.0475883,19.1904117 64.596518,0.799327243 41.9175191,0.799327243 C19.2385193,0.799327243 0.787448975,19.1904117 0.787448975,41.7966672 C0.787448975,64.402775 19.2385193,82.7938593 41.9175191,82.7938593 L41.9175191,82.7938593 L41.9175191,82.7938593 L41.9175191,82.7938593 Z" id="path-1"></path> <mask id="mask-2" maskContentUnits="userSpaceOnUse" maskUnits="objectBoundingBox" x="0" y="0" width="82.2601393" height="81.9945321" fill="white"> <use xlink:href="#path-1"></use> </mask> </defs> <g id="header__logo__symbol" stroke="none" stroke-width="1" fill="none" fill-rule="evenodd"> <g id="logo-symbol" transform="translate(-0.500000, -0.493827)"> <use id="circle" stroke="white" mask="url(#mask-2)" stroke-width="6" xlink:href="#path-1"></use> <path d="M21.3337688,47.0107279 C22.7362371,46.9927076 24.1501307,47.1674324 25.5138372,47.5279823 L25.5165858,47.5287031 C30.6782519,48.8953619 34.830985,52.9143186 36.3537837,58.0179528 C36.7614938,59.3854765 36.9781479,60.7968257 36.9966607,62.2126437 C37.0122801,63.3601756 36.8957096,64.5196731 36.650563,65.6594204 L36.1539072,67.9740904 L38.4459884,67.3563548 C46.5378375,65.1764766 52.1109736,57.8123775 51.9988856,49.447936 C51.994981,49.1454834 51.9792168,48.8317863 51.9569431,48.5098718 C58.9062245,40.8103068 63.1144959,30.9361978 63.8130539,20.6212402 L63.8134871,20.6137438 C63.8733643,19.7278664 63.121727,18.9999909 62.2351511,19.0853349 L62.2279189,19.0860558 C52.037213,20.0662154 42.3540092,24.4524979 34.8742294,31.445379 C34.3733784,31.4110685 33.8778798,31.3894442 33.3993024,31.3954989 C24.7807127,31.5099637 17.5018227,37.4519018 15.698009,45.8457522 L15.2007742,48.1607106 L17.4932897,47.5425427 C18.7399924,47.2067886 20.0321079,47.0277391 21.3337688,47.0107279 L21.3337688,47.0107279 L21.3337688,47.0107279 L21.3337688,47.0107279 Z M39.8419473,63.8145753 C39.8841793,63.2674792 39.9024025,62.7199508 39.8950266,62.1744407 C39.8779605,60.8896661 39.7240748,59.608784 39.436841,58.3524093 C39.5321523,58.3012319 39.6222561,58.2418369 39.7169884,58.1897943 C40.4764349,57.7743186 41.2272047,57.3454357 41.9600397,56.8895944 C41.9701641,56.8835397 41.9804324,56.8780614 41.9899778,56.8718625 C42.7317801,56.4098222 43.4544917,55.9202471 44.1680911,55.4175532 C44.3621831,55.2808872 44.5536723,55.141338 44.7455949,55.0016447 C45.3335116,54.5739152 45.9118839,54.1329228 46.4798422,53.6775139 C46.6068258,53.5757354 46.7368474,53.4781375 46.8631092,53.3749173 C47.5337538,52.8253706 48.1881999,52.2544879 48.8290511,51.666594 C48.8827085,51.6172904 48.9402715,51.5728884 48.9939288,51.5234408 C48.347292,56.9528817 44.8531991,61.6359943 39.8419473,63.8145753 L39.8419473,63.8145753 L39.8419473,63.8145753 L39.8419473,63.8145753 Z M32.5770864,38.1620453 C32.8176046,37.8621877 33.0653539,37.5672316 33.3141156,37.2732847 C33.4717611,37.0874594 33.6268039,36.8996159 33.7874864,36.7160973 C34.0667652,36.3972103 34.3548667,36.085099 34.6438347,35.77342 C34.7845588,35.6220496 34.920944,35.4675075 35.0638377,35.3178671 C35.4996049,34.861305 35.944629,34.4116627 36.4016565,33.9718235 C43.0538691,27.5710169 51.6491728,23.4175566 60.7676002,22.1649303 C59.7617052,31.403716 55.7631462,40.176281 49.399758,47.0309107 C48.9781636,47.4851661 48.5470248,47.9278885 48.1086538,48.3621054 C47.9661945,48.5033845 47.8191067,48.6388972 47.674478,48.7780136 C47.3752397,49.0667707 47.0747006,49.3545188 46.7680874,49.6341936 C46.5912063,49.7953672 46.4101311,49.9512066 46.2310795,50.1093526 C45.9490532,50.3581768 45.6658697,50.6054152 45.3779131,50.8465988 C45.1838211,51.0092138 44.9866921,51.1679366 44.7897068,51.3270917 C44.5076805,51.554724 44.2242075,51.7800496 43.9371184,52.0004739 C43.732902,52.1570341 43.5273846,52.311432 43.3205655,52.4645322 C43.0304393,52.6790459 42.7374209,52.8895228 42.4422331,53.0968282 C42.2336777,53.2432971 42.0249776,53.3893336 41.8138195,53.5320542 C41.5089415,53.7382063 41.2001588,53.9383036 40.8899296,54.1368152 C40.6825313,54.2694444 40.4760006,54.4038038 40.2661444,54.5331173 C39.9327739,54.7384044 39.594198,54.9359069 39.2551877,55.1324 C39.0632641,55.2436934 38.8733663,55.3583024 38.6799982,55.4667125 C38.6361747,55.4910758 38.5909057,55.513277 38.5475176,55.5374961 C36.6158517,50.8124322 32.7332853,47.0548416 27.9381095,45.2696796 C27.9650106,45.218358 27.9893079,45.1654505 28.0163537,45.1142727 C28.124536,44.9084089 28.2392277,44.7064376 28.3508813,44.5025921 C28.5397668,44.1566025 28.7299532,43.8113337 28.9285288,43.4709665 C29.0566705,43.2506865 29.1901635,43.0337223 29.3223546,42.8157489 C29.515579,42.4974384 29.710828,42.1804256 29.9118617,41.8671608 C30.0540325,41.6458718 30.1996736,41.4266009 30.3460385,41.2077624 C30.5493874,40.9035799 30.7563513,40.6017041 30.9673647,40.3025672 C31.1196589,40.0866122 31.2738341,39.8718103 31.430033,39.6585943 C31.6484233,39.3608991 31.87202,39.0666638 32.0980748,38.7744468 C32.2567327,38.5695921 32.4146677,38.364305 32.5770864,38.1620453 L32.5770864,38.1620453 L32.5770864,38.1620453 L32.5770864,38.1620453 Z M31.995099,34.3688467 C31.9297268,34.4419369 31.8712962,34.5203611 31.8062135,34.5937397 C31.204123,35.2720235 30.6183747,35.9621284 30.059239,36.6716954 C29.9948791,36.7532911 29.9351477,36.8380587 29.8713658,36.9200869 C29.371094,37.5634834 28.8913595,38.2208635 28.4266665,38.8886233 C28.2897033,39.0851165 28.1537513,39.2821864 28.0202594,39.4808421 C27.5217226,40.2208272 27.0380826,40.970183 26.5833693,41.7382797 C26.5742582,41.7532726 26.564568,41.7675447 26.5556007,41.7826818 C26.0945228,42.5631764 25.6646859,43.362989 25.2493113,44.1714512 C25.1981119,44.2712116 25.1385253,44.3662145 25.0880497,44.4664072 C23.835852,44.2204665 22.5626825,44.1051366 21.2954424,44.1215711 C20.5827105,44.13123 19.8721481,44.1813984 19.1680941,44.2720766 C21.2011444,38.8178397 26.1325606,34.981248 31.995099,34.3688467 L31.995099,34.3688467 L31.995099,34.3688467 L31.995099,34.3688467 Z M50.884375,35.9429549 L50.8848083,35.9429549 C51.0373921,35.9592452 51.1925786,35.9665974 51.3499356,35.9645792 C52.3821526,35.9507395 53.3472622,35.5374262 54.0672263,34.800036 C54.7876226,34.0627901 55.1768199,33.090271 55.1630804,32.0616729 C55.1348774,29.9599306 53.4004863,28.2291179 51.2471046,28.2608335 C49.1164287,28.2892336 47.4057569,30.0400849 47.4342483,32.1640282 C47.4604266,34.111661 48.9437418,35.7362261 50.884375,35.9429549 L50.884375,35.9429549 L50.884375,35.9429549 L50.884375,35.9429549 Z M51.2760303,30.4274489 C51.3454519,30.4267282 51.4142955,30.4297556 51.4816924,30.4369638 C52.3300867,30.5273535 52.9780243,31.2379295 52.9894507,32.0903612 C52.9950905,32.5404361 52.8250073,32.9660031 52.5100048,33.2886384 C52.1951481,33.6111295 51.7726861,33.7916206 51.3208651,33.7978196 C50.3736892,33.8093527 49.6204615,33.0552397 49.607879,32.1353398 C49.5955851,31.2060697 50.3437511,30.4398468 51.2760303,30.4274489 L51.2760303,30.4274489 L51.2760303,30.4274489 L51.2760303,30.4274489 Z" id="rocket" fill="white"></path> <path d="M18.9213571,57.1141993 C18.6373051,57.1141993 18.3568691,57.1307779 18.0810616,57.1622053 C17.4604583,57.232989 17.0150009,57.7921946 17.0864482,58.4112277 C17.1574612,59.0301163 17.7244072,59.480047 18.3390802,59.4021993 C18.5304247,59.3801425 18.7249509,59.3699069 18.9213571,59.3699069 C21.7368504,59.3699069 24.0270507,61.6524289 24.0270507,64.4586924 C24.0270507,64.6489868 24.0167825,64.8362535 23.996245,65.0202046 C23.9279805,65.6392376 24.3758959,66.1961366 24.9967888,66.2646137 C25.0390208,66.2692269 25.0808185,66.2716777 25.1223267,66.2716777 C25.6911526,66.2716777 26.1811563,65.8445247 26.2450819,65.2672988 C26.2742971,65.0014636 26.2893386,64.7324566 26.2893386,64.4586924 C26.2893386,60.4088848 22.9842759,57.1141993 18.9213571,57.1141993 L18.9213571,57.1141993 L18.9213571,57.1141993 L18.9213571,57.1141993 Z" id="fart-2" fill="white"></path> <path d="M19.9113421,51.4874001 C19.1474119,51.4874001 18.3801551,51.5597698 17.6312653,51.7006163 C17.0174599,51.8169552 16.6142345,52.4068674 16.7305156,53.0188365 C16.8473767,53.6306613 17.441079,54.0334507 18.0527149,53.9169676 C18.663049,53.8013495 19.2882808,53.743252 19.9113421,53.743252 C25.3577831,53.743252 29.789217,58.1595202 29.789217,63.5888172 C29.789217,64.1684937 29.7383072,64.7504769 29.6376456,65.3183323 C29.5287395,65.9310221 29.9394866,66.516177 30.5545939,66.6247311 C30.621268,66.6365525 30.6875078,66.6420306 30.7525905,66.6420306 C31.2911887,66.6420306 31.76861,66.2574056 31.8652221,65.7100212 C31.9887354,65.0140056 32.0515039,64.2998256 32.0515039,63.5888172 C32.0515039,56.9159761 26.6053534,51.4874001 19.9113421,51.4874001 L19.9113421,51.4874001 L19.9113421,51.4874001 L19.9113421,51.4874001 Z" id="fart-1" fill="white"></path> </g> </g> </svg>
