<?xml version="1.0" standalone="no"?>
<!DOCTYPE svg PUBLIC "-//W3C//DTD SVG 20010904//EN"
 "http://www.w3.org/TR/2001/REC-SVG-20010904/DTD/svg10.dtd">
<svg version="1.0" xmlns="http://www.w3.org/2000/svg"
 width="512.000000pt" height="512.000000pt" viewBox="0 0 512.000000 512.000000"
 preserveAspectRatio="xMidYMid meet">
<metadata>
Created by potrace 1.11, written by Peter Selinger 2001-2013
</metadata>
<g transform="translate(0.000000,512.000000) scale(0.100000,-0.100000)"
fill="#000000" stroke="none">
<path d="M565 5105 c-155 -42 -247 -95 -350 -199 -96 -97 -146 -179 -185 -306
l-30 -96 2 -1964 3 -1965 27 -72 c49 -132 88 -193 183 -288 102 -102 176 -147
316 -189 l86 -26 1964 2 1964 3 72 27 c132 49 193 88 288 183 102 102 147 176
189 316 l26 86 -2 1964 -3 1964 -27 72 c-48 129 -88 193 -178 283 -100 101
-180 150 -310 190 l-94 30 -1946 -1 c-1614 0 -1954 -3 -1995 -14z m1386 -1827
l499 -312 -2 -160 -3 -161 -495 -312 c-272 -171 -498 -309 -502 -307 -10 6
-208 294 -208 302 0 4 171 112 380 241 209 129 380 235 380 237 0 1 -170 107
-377 235 -208 127 -380 233 -382 235 -6 5 192 314 202 314 5 0 234 -140 508
-312z m1659 -1693 l0 -185 -670 0 -670 0 0 185 0 185 670 0 670 0 0 -185z"/>
</g>
</svg>
